<?xml version="1.0" encoding="UTF-8"?>
<!-- Generator: Adobe Illustrator 26.0.1, SVG Export Plug-In . SVG Version: 6.00 Build 0)  -->
<svg width="139" height="113" version="1.1" viewBox="0 0 139 113" xml:space="preserve" xmlns="http://www.w3.org/2000/svg" xmlns:xlink="http://www.w3.org/1999/xlink">
<style type="text/css">
	.st0{clip-path:url(#SVGID_00000053504646934646330740000009134454895836103350_);}
	.st1{fill:#17B5CB;}
</style>

	<defs>
		<rect id="SVGID_1_" width="139" height="113"/>
	</defs>
	<clipPath id="SVGID_00000035518931339590433170000002358037249938198420_">
		<use xlink:href="#SVGID_1_"/>
	</clipPath>
	<g clip-path="url(#SVGID_00000035518931339590433170000002358037249938198420_)">
		<path class="st1" d="m124.1 0h14.6l-59.2 67.6c-1.5 1.7-1.6 4.3-0.1 6.1l34.1 39.7h-15.2l-31.5-36.8-1.6-2c-1.5-1.7-1.4-4.4 0.1-6.1z"/>
		<path class="st1" d="m91.2 73.7c-1-1.1-1.3-2.7-1-4.1 0.3-0.8 0.8-1.6 1.4-2.2l3.9-4.3 43.5 50.3h-13.8s-25.5-29.8-34-39.7z"/>
		<path class="st1" d="m15.2 113.4h-15.2l46.6-53.9c1.5-1.7 1.5-4.3 0-6l-46.2-53.5h14.6l46.5 53.9c1.2 1.6 1.4 3.9 0.1 5.4-12.2 14.1-46.4 54.1-46.4 54.1z"/>
		<path class="st1" d="m40.6 0h-14l43.1 49.9s0.1-0.1 4.9-5.8c1.3-1.5 1.6-3.4 0.1-4.9-9-9.2-34.1-39.2-34.1-39.2z"/>
		<path class="st1" d="m82.6 34.8 29.9-34.8h-14.2l-15.6 18.2-4.5 5.3c-1.5 1.7-1.6 4.3-0.1 6.1 1.1 1.3 4.5 5.2 4.5 5.2z"/>
		<path class="st1" d="m56.6 78.6-29.9 34.8h14.1l15.6-18.2 4.5-5.3c1.5-1.7 1.6-4.3 0.1-6.1-1.1-1.3-4.4-5.2-4.4-5.2z"/>
	</g>

</svg>
